<svg width="289" height="55" viewBox="0 0 289 55" fill="none" xmlns="http://www.w3.org/2000/svg">
<path d="M286.663 8.16406H288.318C288.318 8.16406 287.094 15.818 286.911 16.9919C286.729 18.1658 286.896 19.2106 286.896 19.2106H285.241C285.241 19.2106 285.058 18.2715 285.256 17.0154C285.388 16.1624 286.663 8.16406 286.663 8.16406Z" fill="white" style="fill:white;fill-opacity:1;"/>
<path d="M253.384 8.16406H255.051C255.051 8.16406 253.819 15.818 253.635 16.9919C253.451 18.1658 253.619 19.2106 253.619 19.2106H251.952C251.952 19.2106 251.768 18.2715 251.968 17.0154C252.101 16.1624 253.384 8.16406 253.384 8.16406Z" fill="white" style="fill:white;fill-opacity:1;"/>
<path d="M264.701 15.2744C264.255 18.0723 261.677 19.3949 259.419 19.3949C256.891 19.3949 255.224 17.7944 255.6 15.4427C255.995 12.954 258.253 11.3418 260.859 11.3418C263.465 11.3418 265.061 13.0479 264.701 15.2705V15.2744ZM257.126 15.3918C256.84 17.1762 258.116 18.264 259.661 18.264C261.207 18.264 262.866 17.2192 263.164 15.3331C263.379 14.0262 262.612 12.4688 260.636 12.4688C258.66 12.4688 257.368 13.8735 257.126 15.384V15.3918Z" fill="white" style="fill:white;fill-opacity:1;"/>
<path d="M265.543 19.2126C265.684 18.653 265.97 17.5222 266.087 16.7865L267.468 8.16211H269.092L268.388 12.5565H268.423C269.225 11.8521 270.266 11.3434 271.831 11.3434C274.167 11.3434 275.517 12.9947 275.146 15.2604C274.703 18.0074 272.36 19.3965 270.305 19.3965C268.99 19.3965 267.816 18.8839 267.351 17.9408H267.316L266.979 19.2048H265.531L265.547 19.2126H265.543ZM267.762 16.4891C267.895 17.3695 268.767 18.1639 270.106 18.1639C271.874 18.1639 273.17 17.0604 273.455 15.3152C273.698 13.8243 272.876 12.5604 271.076 12.5604C269.914 12.5604 268.705 13.1865 268.153 14.3291C267.903 14.8417 267.711 16.1135 267.77 16.4891H267.762Z" fill="white" style="fill:white;fill-opacity:1;"/>
<path d="M281.564 19.211L281.579 18.1896H281.536C280.949 18.7923 279.846 19.4027 278.488 19.4027C276.606 19.4027 275.933 18.221 276.093 17.1996C276.41 15.2157 278.339 14.2844 282.014 14.3118L282.037 14.1709C282.119 13.6857 282.221 12.3944 280.28 12.3944C279.118 12.3944 278.054 12.7974 277.341 13.1966L277.518 12.0735C278.398 11.604 279.228 11.3457 280.664 11.3457C283.512 11.3457 283.814 13.1535 283.579 14.6209L283.144 17.3405C283.035 18.0253 283.07 19.207 283.07 19.207H281.556L281.564 19.2149V19.211ZM281.783 15.3096C279.873 15.2666 277.956 15.5796 277.729 16.9609C277.588 17.8296 278.191 18.2523 279.028 18.2523C280.268 18.2523 281.071 17.5557 281.431 16.9609C281.513 16.8123 281.564 16.6596 281.575 16.5344L281.775 15.3057H281.783V15.3096Z" fill="white" style="fill:white;fill-opacity:1;"/>
<path d="M246.986 14.7242H249.005L248.536 17.6394C248.117 17.839 247.362 17.9838 246.293 17.9838C243.406 17.9838 241.923 16.3598 242.326 13.8477C242.721 11.3785 244.779 9.57851 247.777 9.57851C249.494 9.57851 250.598 10.005 250.974 10.1811L251.181 8.86633C250.797 8.68242 249.698 8.23633 248.039 8.23633C243.91 8.23633 241.207 11.042 240.745 13.9064C240.494 15.4716 240.905 16.8725 241.731 17.7764C242.701 18.8564 244.11 19.3103 245.949 19.3103C247.64 19.3103 249.072 18.8994 249.784 18.649L250.598 13.5737H247.158L246.974 14.7124L246.99 14.7203L246.986 14.7242Z" fill="white" style="fill:white;fill-opacity:1;"/>
<path d="M226.109 19.4121C226.109 19.4121 218.85 34.7709 218.189 36.2578H218.028C217.735 34.9078 212.937 19.4121 212.937 19.4121H205.326L213.407 41.1844C213.657 41.83 213.693 42.1979 213.665 42.464C213.638 42.734 213.43 43.1096 213.121 43.5009C211.865 45.3166 210.042 46.7644 208.649 47.4375C207.181 48.2005 205.718 48.6349 204.63 48.8109L204.07 54.0623C205.929 53.9097 210.132 53.2405 213.098 51.241C216.44 49.0575 219.437 45.5044 224.802 35.3813L233.571 19.4121H226.109Z" fill="white" style="fill:white;fill-opacity:1;"/>
<path d="M190.869 18.2988C186.482 18.2988 182.679 20.0401 180.311 21.2532L179.658 25.9528C181.7 24.8571 186.322 23.1549 189.088 23.1549C194.265 23.1315 194.488 25.4989 194.304 26.7706L194.254 27.0876C183.5 27.021 177.079 30.7228 176.226 36.6902C175.733 40.1298 178.167 43.7729 183.939 43.7729C187.656 43.7729 192.923 40.4663 192.923 40.4663L192.774 43.1898H199.513C199.513 43.1898 199.849 39.1124 200.174 36.8428L201.285 29.0989C202.033 23.8319 199.72 18.3067 190.869 18.3067V18.2988ZM193.447 34.0137C193.389 34.4246 193.279 34.9254 193.056 35.3598C192.137 37.0659 189.867 38.5254 186.819 38.8268C184.338 39.085 182.859 38.2007 183.184 35.9898C183.669 32.5463 188.376 31.5367 193.792 31.6189L193.447 34.0059V34.0137Z" fill="white" style="fill:white;fill-opacity:1;"/>
<path d="M165.413 8.41797C167.581 8.41797 169.381 8.73493 170.813 9.36493C172.246 9.99493 173.365 10.8284 174.175 11.8654C174.985 12.9023 175.513 14.0802 175.763 15.4067C176.014 16.7332 176.037 18.1067 175.838 19.5311C175.638 20.9554 175.231 22.2898 174.605 23.632C173.979 24.9741 173.118 26.1637 172.019 27.2007C170.919 28.2376 169.565 29.0711 167.953 29.7011C166.345 30.3311 164.455 30.6481 162.287 30.6481H154.527L152.782 43.072H145.648L150.52 8.42188H165.413V8.41797ZM159.426 25.2246C160.459 25.2246 162.079 25.1659 163.062 25.0172C164.04 24.8685 165.558 24.5711 166.356 24.0976C167.155 23.6241 167.8 23.2837 168.309 22.4698C168.872 21.5698 169.209 20.5132 169.393 19.2493C169.577 17.9854 169.522 16.9719 169.295 16.0954C169.111 15.3793 168.747 14.851 168.082 14.4245C167.417 13.998 166.435 13.5793 165.492 13.4815C164.474 13.3758 163.105 13.3797 162.068 13.3797H156.93L155.271 25.2246H159.426Z" fill="white" style="fill:white;fill-opacity:1;"/>
<path d="M133.412 18.7852C128.982 18.7852 125.699 20.6008 124.201 22.4595H124.024L124.341 20.1078H117.591C117.423 22.166 117.263 23.6256 116.864 26.3648L114.477 43.0344H121.587L123.614 29.0687C123.707 28.38 123.915 27.6443 124.208 27.1748C125.206 25.3395 127.398 23.6569 130.211 23.6569C134.081 23.6569 135.228 26.2435 134.734 29.6596L132.79 43.0501H139.9L141.966 28.9669C143.038 21.4578 138.307 18.8165 133.416 18.8165V18.7812V18.7891L133.412 18.7852Z" fill="white" style="fill:white;fill-opacity:1;"/>
<path d="M102.013 18.7363V18.7794C92.9778 18.7794 87.3743 24.4142 86.4391 30.9451C85.4021 38.2155 90.0743 43.5295 99.1918 43.5295C103.254 43.5295 107.053 42.7821 110.101 41.0682L111.048 35.6329C108.094 37.7851 104.13 38.9982 100.867 38.9982C96.3274 38.9982 92.6609 37.116 93.0796 32.8116H111.847C112.058 32.2912 112.301 31.4068 112.465 30.2838C113.208 25.099 111.15 18.752 102.017 18.752L102.009 18.7363H102.013ZM106.016 28.6325H93.6587C94.32 26.2064 96.613 22.8529 100.992 22.8529C105.746 22.8529 106.368 26.4294 106.016 28.6325Z" fill="white" style="fill:white;fill-opacity:1;"/>
<path d="M95.1041 8.39453L94.2472 13.4346H81.7136L77.4014 43.029H70.2914L74.6036 13.4346H62.0701L62.7979 8.39453H75.4332H95.1041Z" fill="white" style="fill:white;fill-opacity:1;"/>
<path d="M13.327 20.9473C14.754 15.812 19.6374 12.2397 25.1512 12.6377C30.5193 13.0454 34.742 17.0932 35.577 22.1895C35.577 22.1895 35.8687 23.2289 35.6552 25.8984C35.6454 26.0827 35.6257 26.267 35.6063 26.4609C35.5966 26.626 35.5769 26.8106 35.5575 26.9756C35.5437 27.0927 35.3592 28.3045 35.3055 28.5869C34.8639 30.9104 34.2983 31.9425 34.286 31.9648C32.364 36.1875 27.9665 38.984 23.0643 38.6152C21.6956 38.5085 20.4137 38.1784 19.2391 37.6445C19.2003 37.6251 19.1617 37.6055 19.1229 37.6055C18.5016 37.3531 17.7933 37.7511 17.7059 38.4307L17.6962 38.4883V38.5859L17.453 40.3428L16.5204 46.9746C16.5007 47.1148 16.3579 47.2027 16.2245 47.1553C14.0157 46.3705 11.9477 45.2838 10.078 43.9365C10.0107 43.888 9.97581 43.8058 9.98718 43.7236L12.9589 22.6074C12.988 22.4037 13.046 22.1901 13.0848 21.9863C13.1431 21.6272 13.23 21.2773 13.327 20.9473ZM44.7255 12.6016C44.8623 12.2546 45.3348 12.2167 45.5155 12.543C47.4374 16.015 48.535 20.0109 48.535 24.2666C48.535 31.0591 45.7434 37.1926 41.246 41.5967C40.9469 41.8896 40.4635 41.6342 40.5214 41.2197L42.5555 26.7324C42.9015 24.2722 42.7524 21.8023 42.0995 19.3984C42.0867 19.3513 42.0894 19.3013 42.1073 19.2559L44.7255 12.6016ZM24.2684 0C31.7908 0.000346783 38.5118 3.43053 42.955 8.7959C43.1936 9.08418 42.9834 9.5113 42.6093 9.50977L35.4901 9.47461C35.44 9.47437 35.3909 9.45761 35.3514 9.42676C35.0971 9.22788 34.8261 9.0225 34.5565 8.84277C32.2368 7.2803 29.6351 6.29063 26.8593 5.90234C21.8601 5.20353 16.9094 6.53362 12.9198 9.65918C9.15329 12.6103 6.70583 16.8429 6.03601 21.5996V21.6084L3.99304 36.1406C3.93478 36.5547 3.4008 36.6677 3.19324 36.3047C1.39596 33.1616 0.279139 29.5802 0.0467529 25.7598C0.0377171 25.6156 0.0287857 25.4709 0.0223389 25.3262C0.0177128 25.2186 0.0148129 25.1108 0.0115967 25.0029C-0.00816695 24.3666 -0.00218322 23.7253 0.0291748 23.0801C0.0307999 23.0464 0.0313179 23.0122 0.0330811 22.9785C0.0520632 22.619 0.0798379 22.2582 0.115112 21.8965C0.124443 21.8003 0.134937 21.7043 0.145386 21.6084C0.178442 21.3064 0.215022 21.0034 0.259644 20.7002C0.274048 20.6024 0.290952 20.5046 0.306519 20.4072C0.35838 20.0818 0.413955 19.7552 0.47937 19.4287C0.49024 19.375 0.504279 19.3212 0.515503 19.2676C0.829661 17.7511 1.29028 16.2245 1.91003 14.7012C5.04045 7.02393 12.0561 1.46704 20.2538 0.28125C21.5751 0.0891973 22.8734 -0.000595317 24.1425 0.00195312C24.1839 0.00174526 24.2269 0 24.2684 0ZM25.1317 19.957C24.5784 19.957 24.0637 20.1317 23.6366 20.4326C22.9958 20.8113 20.7056 22.3552 20.162 25.5488V25.6553C20.1037 26.1309 20.4431 26.5481 20.9091 26.5967C21.1809 26.6258 21.4434 26.529 21.6278 26.3252C21.6466 26.3043 22.8751 24.9488 24.8016 25.1992H24.9471C25.0054 25.2089 25.0637 25.2187 25.1219 25.2188C25.2092 25.2188 25.3062 25.1895 25.3934 25.1895C25.4516 25.1798 25.5198 25.1796 25.578 25.1699C25.7916 25.1311 25.9961 25.0727 26.1805 24.9854H26.1991L26.2089 24.9756C27.1214 24.5679 27.7626 23.6557 27.7626 22.5879C27.7626 21.1318 26.5781 19.957 25.1317 19.957Z" fill="white" style="fill:white;fill-opacity:1;"/>
</svg>
